<?xml version="1.0" encoding="iso-8859-1"?>
<!-- Uploaded to: SVG Repo, www.svgrepo.com, Generator: SVG Repo Mixer Tools -->
<svg height="800px" width="800px" version="1.1" id="Capa_1" xmlns="http://www.w3.org/2000/svg" xmlns:xlink="http://www.w3.org/1999/xlink" 
	 viewBox="0 0 512 512" xml:space="preserve">
<g>
	<g>
		<path style="fill:#73D14F;" d="M496,120H16c-8.82,0-16,7.176-16,16v240c0,8.824,7.18,16,16,16h480c8.82,0,16-7.176,16-16V136
			C512,127.176,504.82,120,496,120z"/>
	</g>
	<g>
		<path style="fill:#FFEEBB;" d="M472,208c-26.469,0-48-21.531-48-48c0-4.418-3.578-8-8-8H96c-4.422,0-8,3.582-8,8
			c0,26.469-21.531,48-48,48c-4.422,0-8,3.582-8,8v80c0,4.418,3.578,8,8,8c26.469,0,48,21.531,48,48c0,4.418,3.578,8,8,8h320
			c4.422,0,8-3.582,8-8c0-26.469,21.531-48,48-48c4.422,0,8-3.582,8-8v-80C480,211.582,476.422,208,472,208z"/>
	</g>
	<g>
		<ellipse style="fill:#859A55;" cx="256" cy="256" rx="88" ry="104"/>
	</g>
	<g>
		<path style="fill:#73D14F;" d="M324.394,302.106c-2.695-8.65-10.031-15.046-18.968-16.535L272,280c-8.836,0,0,0.836,0-8h-32
			c0,8.836,8.836,8,0,8l-33.426,5.571c-8.937,1.489-16.273,7.885-18.968,16.534l-4.024,12.916C199.459,342.178,225.956,360,256,360
			s56.541-17.822,72.418-44.978L324.394,302.106z"/>
	</g>
	<g>
		<g>
			<path style="fill:#859A55;" d="M64,152H40c-4.422,0-8,3.582-8,8v24c0,4.418,3.578,8,8,8c17.648,0,32-14.355,32-32
				C72,155.582,68.422,152,64,152z"/>
		</g>
		<g>
			<path style="fill:#859A55;" d="M40,320c-4.422,0-8,3.582-8,8v24c0,4.418,3.578,8,8,8h24c4.422,0,8-3.582,8-8
				C72,334.355,57.648,320,40,320z"/>
		</g>
		<g>
			<path style="fill:#859A55;" d="M472,320c-17.648,0-32,14.355-32,32c0,4.418,3.578,8,8,8h24c4.422,0,8-3.582,8-8v-24
				C480,323.582,476.422,320,472,320z"/>
		</g>
		<g>
			<path style="fill:#859A55;" d="M472,152h-24c-4.422,0-8,3.582-8,8c0,17.645,14.352,32,32,32c4.422,0,8-3.582,8-8v-24
				C480,155.582,476.422,152,472,152z"/>
		</g>
	</g>
	<g>
		<circle style="fill:#73D14F;" cx="112" cy="256" r="24"/>
	</g>
	<g>
		<circle style="fill:#73D14F;" cx="400" cy="256" r="24"/>
	</g>
	<g>
		<path style="fill:#FFEEBB;" d="M256,192c-22.055,0-40,17.945-40,40v8c0,22.055,17.945,40,40,40s40-17.945,40-40v-8
			C296,209.945,278.055,192,256,192z"/>
	</g>
	<g>
		<path style="fill:#FFEEBB;" d="M280.002,283.682c0,2.963-1.662,5.635-4.236,7.102C269.935,294.104,263.189,296,256,296
			c-7.201,0-13.957-1.903-19.794-5.233c-2.573-1.468-4.234-4.141-4.232-7.103L232,240l32,8l16,8L280.002,283.682z"/>
	</g>
</g>
</svg>